<svg width="80" height="64" xmlns="http://www.w3.org/2000/svg"><g id="Page-1" stroke="none" stroke-width="1" fill="none" fill-rule="evenodd"><g id="image-placeholder" transform="translate(-500 -368)" fill="#000" fill-rule="nonzero"><g id="Group" transform="translate(500 368)"><g id="placeholder"><path d="M32 16h16V8h8v8h8v8h8v8h8v16h-8v-8h-8v8h-8v8h-8v-8H32v8h-8v-8h-8v-8H8v8H0V32h8v-8h8v-8h8V8h8v8zm-8 16h8v-8h-8v8zM16 0h8v8h-8V0zm0 56h8v8h-8v-8zm40-24v-8h-8v8h8zm8-32v8h-8V0h8zm0 56v8h-8v-8h8z" id="Shape"/></g></g></g></g></svg>